<mxfile host="app.diagrams.net" agent="Mozilla/5.0 (Windows NT 10.0; Win64; x64) AppleWebKit/537.36 (KHTML, like Gecko) Chrome/131.0.0.0 Safari/537.36" version="26.0.7">
  <diagram name="Page-1" id="iTV8h9rxqEA77TbN97z0">
    <mxGraphModel dx="889" dy="845" grid="1" gridSize="10" guides="1" tooltips="1" connect="1" arrows="1" fold="1" page="1" pageScale="1" pageWidth="850" pageHeight="1100" math="0" shadow="0">
      <root>
        <mxCell id="0" />
        <mxCell id="1" parent="0" />
        <mxCell id="4flWX4SAvduZYzEaILh2-1" value="indo-pk-arabic" style="rounded=0;whiteSpace=wrap;html=1;" vertex="1" parent="1">
          <mxGeometry x="130" y="160" width="120" height="60" as="geometry" />
        </mxCell>
        <mxCell id="4flWX4SAvduZYzEaILh2-2" value="tajweed" style="rounded=0;whiteSpace=wrap;html=1;" vertex="1" parent="1">
          <mxGeometry x="350" y="160" width="120" height="60" as="geometry" />
        </mxCell>
        <mxCell id="4flWX4SAvduZYzEaILh2-3" value="uthmani" style="rounded=0;whiteSpace=wrap;html=1;" vertex="1" parent="1">
          <mxGeometry x="600" y="160" width="120" height="60" as="geometry" />
        </mxCell>
        <mxCell id="4flWX4SAvduZYzEaILh2-5" value="" style="edgeStyle=orthogonalEdgeStyle;rounded=0;orthogonalLoop=1;jettySize=auto;html=1;" edge="1" parent="1" source="4flWX4SAvduZYzEaILh2-4" target="4flWX4SAvduZYzEaILh2-1">
          <mxGeometry relative="1" as="geometry" />
        </mxCell>
        <mxCell id="4flWX4SAvduZYzEaILh2-4" value="&lt;ul&gt;&lt;li&gt;ayah_index&lt;/li&gt;&lt;li&gt;surah_no&lt;/li&gt;&lt;li&gt;ayah_no&lt;/li&gt;&lt;li&gt;word_no&lt;/li&gt;&lt;li&gt;text&amp;nbsp; &amp;nbsp; &amp;nbsp; &amp;nbsp;&lt;/li&gt;&lt;/ul&gt;" style="rounded=0;whiteSpace=wrap;html=1;" vertex="1" parent="1">
          <mxGeometry x="130" y="250" width="120" height="100" as="geometry" />
        </mxCell>
        <mxCell id="4flWX4SAvduZYzEaILh2-10" value="" style="edgeStyle=orthogonalEdgeStyle;rounded=0;orthogonalLoop=1;jettySize=auto;html=1;" edge="1" parent="1" source="4flWX4SAvduZYzEaILh2-6" target="4flWX4SAvduZYzEaILh2-2">
          <mxGeometry relative="1" as="geometry" />
        </mxCell>
        <mxCell id="4flWX4SAvduZYzEaILh2-6" value="&lt;ul&gt;&lt;li&gt;ayah_index&lt;/li&gt;&lt;li&gt;surah_no&lt;/li&gt;&lt;li&gt;ayah_no&lt;/li&gt;&lt;li&gt;word_no&lt;/li&gt;&lt;li&gt;text&amp;nbsp; &amp;nbsp; &amp;nbsp; &amp;nbsp;&lt;/li&gt;&lt;/ul&gt;" style="rounded=0;whiteSpace=wrap;html=1;" vertex="1" parent="1">
          <mxGeometry x="350" y="250" width="120" height="100" as="geometry" />
        </mxCell>
        <mxCell id="4flWX4SAvduZYzEaILh2-8" value="" style="edgeStyle=orthogonalEdgeStyle;rounded=0;orthogonalLoop=1;jettySize=auto;html=1;" edge="1" parent="1" source="4flWX4SAvduZYzEaILh2-7" target="4flWX4SAvduZYzEaILh2-3">
          <mxGeometry relative="1" as="geometry" />
        </mxCell>
        <mxCell id="4flWX4SAvduZYzEaILh2-7" value="&lt;ul&gt;&lt;li&gt;ayah_index&lt;/li&gt;&lt;li&gt;surah_no&lt;/li&gt;&lt;li&gt;ayah_no&lt;/li&gt;&lt;li&gt;word_no&lt;/li&gt;&lt;li&gt;text&amp;nbsp; &amp;nbsp; &amp;nbsp; &amp;nbsp;&lt;/li&gt;&lt;/ul&gt;" style="rounded=0;whiteSpace=wrap;html=1;" vertex="1" parent="1">
          <mxGeometry x="600" y="250" width="120" height="100" as="geometry" />
        </mxCell>
      </root>
    </mxGraphModel>
  </diagram>
</mxfile>
